<svg viewBox="0 0 439 387" fill="currentColor" xmlns="http://www.w3.org/2000/svg">
<path d="M0.85 0.899988H272C279.333 0.899988 286.3 1.08332 292.9 1.44998C299.5 1.81664 308.667 3.09998 320.4 5.3C332.5 7.13333 343.317 10.0667 352.85 14.1C362.75 17.7666 373.2 23.2667 384.2 30.6C395.2 37.9333 404.367 46.7333 411.7 57C419.4 66.9 425.633 79.9167 430.4 96.05C435.533 111.817 438.1 129.6 438.1 149.4C438.1 168.833 435.717 186.617 430.95 202.75C426.55 218.883 420.683 232.45 413.35 243.45C406.017 254.083 397.217 263.617 386.95 272.05C376.683 280.117 366.6 286.533 356.7 291.3C346.8 295.7 336.35 299.367 325.35 302.3C314.717 304.867 305.55 306.7 297.85 307.8C290.15 308.533 283 308.9 276.4 308.9H129V387H0.85V0.899988ZM268.15 195.05C301.883 195.05 318.75 181.117 318.75 153.25C318.75 147.017 317.833 141.7 316 137.3C314.533 132.9 312.15 129.417 308.85 126.85C305.55 123.917 302.25 121.533 298.95 119.7C295.65 117.867 291.617 116.767 286.85 116.4C282.45 115.667 278.783 115.117 275.85 114.75C272.917 114.383 269.617 114.2 265.95 114.2H129V195.05H268.15Z" fill="currentColor"/>
</svg>
